<svg width="900" height="1000" xmlns="http://www.w3.org/2000/svg">
    <g>
        <title>Layer 1</title>
        <g id="svg_1">
            <g id="svg_2">
                <rect x="-1" y="-1" width="902" height="1002" id="canvas_background" fill="#fff"/>
                <g id="canvasGrid" display="none">
                    <rect id="svg_3" width="100%" height="100%" x="0" y="0" stroke-width="0" fill="url(#gridpattern)"/>
                </g>
            </g>
            <g id="svg_4">
                <!-- outer lines -->
                <line id="svg_5" fill="none" stroke="#000" y2="45" x2="855" y1="45" x1="45"/>
                <line id="svg_5" fill="none" stroke="#000" y2="955" x2="855" y1="955" x1="45"/>
                <line id="svg_5" fill="none" stroke="#000" y2="955" x2="45" y1="45" x1="45"/>
                <line id="svg_5" fill="none" stroke="#000" y2="955" x2="855" y1="45" x1="855"/>
                <!-- ranks -->
                <line id="svg_5" fill="none" stroke="#000" y2="50" x2="850" y1="50" x1="50"/>
                <line id="svg_6" fill="none" stroke="#000" y2="150" x2="850" y1="150" x1="50"/>
                <line id="svg_7" fill="none" stroke="#000" y2="250" x2="850" y1="250" x1="50"/>
                <line id="svg_8" fill="none" stroke="#000" y2="350" x2="850" y1="350" x1="50"/>
                <line id="svg_9" fill="none" stroke="#000" y2="450" x2="850" y1="450" x1="50"/>
                <line id="svg_10" fill="none" stroke="#000" y2="550" x2="850" y1="550" x1="50"/>
                <line id="svg_11" fill="none" stroke="#000" y2="650" x2="850" y1="650" x1="50"/>
                <line id="svg_12" fill="none" stroke="#000" y2="750" x2="850" y1="750" x1="50"/>
                <line id="svg_13" fill="none" stroke="#000" y2="850" x2="850" y1="850" x1="50"/>
                <line id="svg_14" fill="none" stroke="#000" y2="950" x2="850" y1="950" x1="50"/>
                <!-- left and right file -->
                <line id="svg_15" fill="none" stroke="#000" y2="950" x2="50" y1="50" x1="50"/>
                <line id="svg_16" fill="none" stroke="#000" y2="950" x2="850" y1="50" x1="850"/>
                <!-- top files -->
                <line id="svg_17" fill="none" stroke="#000" y2="450" x2="150" y1="50" x1="150"/>
                <line id="svg_18" fill="none" stroke="#000" y2="450" x2="250" y1="50" x1="250"/>
                <line id="svg_19" fill="none" stroke="#000" y2="450" x2="350" y1="50" x1="350"/>
                <line id="svg_20" fill="none" stroke="#000" y2="450" x2="450" y1="50" x1="450"/>
                <line id="svg_21" fill="none" stroke="#000" y2="450" x2="550" y1="50" x1="550"/>
                <line id="svg_22" fill="none" stroke="#000" y2="450" x2="650" y1="50" x1="650"/>
                <line id="svg_23" fill="none" stroke="#000" y2="450" x2="750" y1="50" x1="750"/>
                <!-- bottom files -->
                <line id="svg_24" fill="none" stroke="#000" y2="950" x2="150" y1="550" x1="150"/>
                <line id="svg_25" fill="none" stroke="#000" y2="950" x2="250" y1="550" x1="250"/>
                <line id="svg_26" fill="none" stroke="#000" y2="950" x2="350" y1="550" x1="350"/>
                <line id="svg_27" fill="none" stroke="#000" y2="950" x2="450" y1="550" x1="450"/>
                <line id="svg_28" fill="none" stroke="#000" y2="950" x2="550" y1="550" x1="550"/>
                <line id="svg_29" fill="none" stroke="#000" y2="950" x2="650" y1="550" x1="650"/>
                <line id="svg_30" fill="none" stroke="#000" y2="950" x2="750" y1="550" x1="750"/>
                <!-- top castle -->
                <line id="svg_31" fill="none" stroke="#000" y2="250" x2="550" y1="50" x1="350"/>
                <line id="svg_32" fill="none" stroke="#000" y2="250" x2="350" y1="50" x1="550"/>
                <!-- bottom castle -->
                <line id="svg_33" fill="none" stroke="#000" y2="750" x2="550" y1="950" x1="350"/>
                <line id="svg_34" fill="none" stroke="#000" y2="750" x2="350" y1="950" x1="550"/>
                <!-- cross (150, 250) vertical lines -->
                <line id="svg_33" fill="none" stroke="#000" y2="223" x2="143" y1="243" x1="143"/>
                <line id="svg_33" fill="none" stroke="#000" y2="223" x2="157" y1="243" x1="157"/>
                <line id="svg_33" fill="none" stroke="#000" y2="277" x2="143" y1="257" x1="143"/>
                <line id="svg_33" fill="none" stroke="#000" y2="277" x2="157" y1="257" x1="157"/>
                <!-- cross (150, 250) horizontal lines -->
                <line id="svg_33" fill="none" stroke="#000" y2="243" x2="123" y1="243" x1="143"/>
                <line id="svg_33" fill="none" stroke="#000" y2="243" x2="177" y1="243" x1="157"/>
                <line id="svg_33" fill="none" stroke="#000" y2="257" x2="123" y1="257" x1="143"/>
                <line id="svg_33" fill="none" stroke="#000" y2="257" x2="177" y1="257" x1="157"/>
                <!-- cross (750, 250) vertical lines -->
                <line id="svg_33" fill="none" stroke="#000" y2="223" x2="743" y1="243" x1="743"/>
                <line id="svg_33" fill="none" stroke="#000" y2="223" x2="757" y1="243" x1="757"/>
                <line id="svg_33" fill="none" stroke="#000" y2="277" x2="743" y1="257" x1="743"/>
                <line id="svg_33" fill="none" stroke="#000" y2="277" x2="757" y1="257" x1="757"/>
                <!-- cross (750, 250) horizontal lines -->
                <line id="svg_33" fill="none" stroke="#000" y2="243" x2="723" y1="243" x1="743"/>
                <line id="svg_33" fill="none" stroke="#000" y2="243" x2="777" y1="243" x1="757"/>
                <line id="svg_33" fill="none" stroke="#000" y2="257" x2="723" y1="257" x1="743"/>
                <line id="svg_33" fill="none" stroke="#000" y2="257" x2="777" y1="257" x1="757"/>
                <!-- cross (150, 750) vertical lines -->
                <line id="svg_33" fill="none" stroke="#000" y2="723" x2="143" y1="743" x1="143"/>
                <line id="svg_33" fill="none" stroke="#000" y2="723" x2="157" y1="743" x1="157"/>
                <line id="svg_33" fill="none" stroke="#000" y2="777" x2="143" y1="757" x1="143"/>
                <line id="svg_33" fill="none" stroke="#000" y2="777" x2="157" y1="757" x1="157"/>
                <!-- cross (150, 750) horizontal lines -->
                <line id="svg_33" fill="none" stroke="#000" y2="743" x2="123" y1="743" x1="143"/>
                <line id="svg_33" fill="none" stroke="#000" y2="743" x2="177" y1="743" x1="157"/>
                <line id="svg_33" fill="none" stroke="#000" y2="757" x2="123" y1="757" x1="143"/>
                <line id="svg_33" fill="none" stroke="#000" y2="757" x2="177" y1="757" x1="157"/>
                <!-- cross (750, 750) vertical lines -->
                <line id="svg_33" fill="none" stroke="#000" y2="723" x2="743" y1="743" x1="743"/>
                <line id="svg_33" fill="none" stroke="#000" y2="723" x2="757" y1="743" x1="757"/>
                <line id="svg_33" fill="none" stroke="#000" y2="777" x2="743" y1="757" x1="743"/>
                <line id="svg_33" fill="none" stroke="#000" y2="777" x2="757" y1="757" x1="757"/>
                <!-- cross (750, 750) horizontal lines -->
                <line id="svg_33" fill="none" stroke="#000" y2="743" x2="723" y1="743" x1="743"/>
                <line id="svg_33" fill="none" stroke="#000" y2="743" x2="777" y1="743" x1="757"/>
                <line id="svg_33" fill="none" stroke="#000" y2="757" x2="723" y1="757" x1="743"/>
                <line id="svg_33" fill="none" stroke="#000" y2="757" x2="777" y1="757" x1="757"/>
                <!-- cross (50, 350) vertical lines -->
                <line id="svg_33" fill="none" stroke="#000" y2="323" x2="57" y1="343" x1="57"/>
                <line id="svg_33" fill="none" stroke="#000" y2="377" x2="57" y1="357" x1="57"/>
                <!-- cross (50, 350) horizontal lines -->
                <line id="svg_33" fill="none" stroke="#000" y2="343" x2="77" y1="343" x1="57"/>
                <line id="svg_33" fill="none" stroke="#000" y2="357" x2="77" y1="357" x1="57"/>
                <!-- cross (250, 350) vertical lines -->
                <line id="svg_33" fill="none" stroke="#000" y2="323" x2="243" y1="343" x1="243"/>
                <line id="svg_33" fill="none" stroke="#000" y2="323" x2="257" y1="343" x1="257"/>
                <line id="svg_33" fill="none" stroke="#000" y2="377" x2="243" y1="357" x1="243"/>
                <line id="svg_33" fill="none" stroke="#000" y2="377" x2="257" y1="357" x1="257"/>
                <!-- cross (250, 350) horizontal lines -->
                <line id="svg_33" fill="none" stroke="#000" y2="343" x2="223" y1="343" x1="243"/>
                <line id="svg_33" fill="none" stroke="#000" y2="343" x2="277" y1="343" x1="257"/>
                <line id="svg_33" fill="none" stroke="#000" y2="357" x2="223" y1="357" x1="243"/>
                <line id="svg_33" fill="none" stroke="#000" y2="357" x2="277" y1="357" x1="257"/>
                <!-- cross (450, 350) vertical lines -->
                <line id="svg_33" fill="none" stroke="#000" y2="323" x2="443" y1="343" x1="443"/>
                <line id="svg_33" fill="none" stroke="#000" y2="323" x2="457" y1="343" x1="457"/>
                <line id="svg_33" fill="none" stroke="#000" y2="377" x2="443" y1="357" x1="443"/>
                <line id="svg_33" fill="none" stroke="#000" y2="377" x2="457" y1="357" x1="457"/>
                <!-- cross (450, 350) horizontal lines -->
                <line id="svg_33" fill="none" stroke="#000" y2="343" x2="423" y1="343" x1="443"/>
                <line id="svg_33" fill="none" stroke="#000" y2="343" x2="477" y1="343" x1="457"/>
                <line id="svg_33" fill="none" stroke="#000" y2="357" x2="423" y1="357" x1="443"/>
                <line id="svg_33" fill="none" stroke="#000" y2="357" x2="477" y1="357" x1="457"/>
                <!-- cross (650, 350) vertical lines -->
                <line id="svg_33" fill="none" stroke="#000" y2="323" x2="643" y1="343" x1="643"/>
                <line id="svg_33" fill="none" stroke="#000" y2="323" x2="657" y1="343" x1="657"/>
                <line id="svg_33" fill="none" stroke="#000" y2="377" x2="643" y1="357" x1="643"/>
                <line id="svg_33" fill="none" stroke="#000" y2="377" x2="657" y1="357" x1="657"/>
                <!-- cross (650, 350) horizontal lines -->
                <line id="svg_33" fill="none" stroke="#000" y2="343" x2="623" y1="343" x1="643"/>
                <line id="svg_33" fill="none" stroke="#000" y2="343" x2="677" y1="343" x1="657"/>
                <line id="svg_33" fill="none" stroke="#000" y2="357" x2="623" y1="357" x1="643"/>
                <line id="svg_33" fill="none" stroke="#000" y2="357" x2="677" y1="357" x1="657"/>
                <!-- cross (850, 350) vertical lines -->
                <line id="svg_33" fill="none" stroke="#000" y2="323" x2="843" y1="343" x1="843"/>
                <line id="svg_33" fill="none" stroke="#000" y2="377" x2="843" y1="357" x1="843"/>
                <!-- cross (850, 350) horizontal lines -->
                <line id="svg_33" fill="none" stroke="#000" y2="343" x2="823" y1="343" x1="843"/>
                <line id="svg_33" fill="none" stroke="#000" y2="357" x2="823" y1="357" x1="843"/>
                <!-- cross (50, 650) vertical lines -->
                <line id="svg_33" fill="none" stroke="#000" y2="623" x2="57" y1="643" x1="57"/>
                <line id="svg_33" fill="none" stroke="#000" y2="677" x2="57" y1="657" x1="57"/>
                <!-- cross (50, 650) horizontal lines -->
                <line id="svg_33" fill="none" stroke="#000" y2="643" x2="77" y1="643" x1="57"/>
                <line id="svg_33" fill="none" stroke="#000" y2="657" x2="77" y1="657" x1="57"/>
                <!-- cross (250, 650) vertical lines -->
                <line id="svg_33" fill="none" stroke="#000" y2="623" x2="243" y1="643" x1="243"/>
                <line id="svg_33" fill="none" stroke="#000" y2="623" x2="257" y1="643" x1="257"/>
                <line id="svg_33" fill="none" stroke="#000" y2="677" x2="243" y1="657" x1="243"/>
                <line id="svg_33" fill="none" stroke="#000" y2="677" x2="257" y1="657" x1="257"/>
                <!-- cross (250, 650) horizontal lines -->
                <line id="svg_33" fill="none" stroke="#000" y2="643" x2="223" y1="643" x1="243"/>
                <line id="svg_33" fill="none" stroke="#000" y2="643" x2="277" y1="643" x1="257"/>
                <line id="svg_33" fill="none" stroke="#000" y2="657" x2="223" y1="657" x1="243"/>
                <line id="svg_33" fill="none" stroke="#000" y2="657" x2="277" y1="657" x1="257"/>
                <!-- cross (450, 650) vertical lines -->
                <line id="svg_33" fill="none" stroke="#000" y2="623" x2="443" y1="643" x1="443"/>
                <line id="svg_33" fill="none" stroke="#000" y2="623" x2="457" y1="643" x1="457"/>
                <line id="svg_33" fill="none" stroke="#000" y2="677" x2="443" y1="657" x1="443"/>
                <line id="svg_33" fill="none" stroke="#000" y2="677" x2="457" y1="657" x1="457"/>
                <!-- cross (450, 650) horizontal lines -->
                <line id="svg_33" fill="none" stroke="#000" y2="643" x2="423" y1="643" x1="443"/>
                <line id="svg_33" fill="none" stroke="#000" y2="643" x2="477" y1="643" x1="457"/>
                <line id="svg_33" fill="none" stroke="#000" y2="657" x2="423" y1="657" x1="443"/>
                <line id="svg_33" fill="none" stroke="#000" y2="657" x2="477" y1="657" x1="457"/>
                <!-- cross (650, 650) vertical lines -->
                <line id="svg_33" fill="none" stroke="#000" y2="623" x2="643" y1="643" x1="643"/>
                <line id="svg_33" fill="none" stroke="#000" y2="623" x2="657" y1="643" x1="657"/>
                <line id="svg_33" fill="none" stroke="#000" y2="677" x2="643" y1="657" x1="643"/>
                <line id="svg_33" fill="none" stroke="#000" y2="677" x2="657" y1="657" x1="657"/>
                <!-- cross (650, 650) horizontal lines -->
                <line id="svg_33" fill="none" stroke="#000" y2="643" x2="623" y1="643" x1="643"/>
                <line id="svg_33" fill="none" stroke="#000" y2="643" x2="677" y1="643" x1="657"/>
                <line id="svg_33" fill="none" stroke="#000" y2="657" x2="623" y1="657" x1="643"/>
                <line id="svg_33" fill="none" stroke="#000" y2="657" x2="677" y1="657" x1="657"/>
                <!-- cross (850, 650) vertical lines -->
                <line id="svg_33" fill="none" stroke="#000" y2="623" x2="843" y1="643" x1="843"/>
                <line id="svg_33" fill="none" stroke="#000" y2="677" x2="843" y1="657" x1="843"/>
                <!-- cross (850, 650) horizontal lines -->
                <line id="svg_33" fill="none" stroke="#000" y2="643" x2="823" y1="643" x1="843"/>
                <line id="svg_33" fill="none" stroke="#000" y2="657" x2="823" y1="657" x1="843"/>
            </g>
        </g>
    </g>
</svg>
